<svg width="48" height="48" viewBox="0 0 48 48" fill="none" xmlns="http://www.w3.org/2000/svg">
<g clip-path="url(#clip0_2_2)">
<rect width="48" height="48" rx="12" fill="#68686C"/>
<mask id="path-2-inside-1_2_2" fill="white">
<path d="M35.6347 10.2984C35.976 9.78657 36.6609 9.66104 37.0839 10.1077C38.8045 11.9242 41.1819 15.8942 41.9729 18.2826C43.2542 22.151 43.2558 26.4793 41.9729 30.3472C40.69 34.2151 38.1935 37.5659 34.8544 39.9018C31.5152 42.2377 27.5116 43.4341 23.4383 43.3132C19.365 43.1923 15.4394 41.7606 12.2447 39.2308C9.04994 36.7009 6.75658 33.2079 5.70531 29.2708C4.65403 25.3336 4.90094 21.1624 6.40934 17.3767C7.65754 14.2441 10.114 11.5772 11.871 10.1191C12.3814 9.69559 13.1284 9.88597 13.4339 10.4747L14.1279 11.8117C14.393 12.3225 14.2209 12.9464 13.772 13.3064C12.3259 14.4658 10.9425 16.2311 9.92749 18.7786C8.72076 21.8071 8.52324 25.1441 9.36426 28.2938C10.2053 31.4435 12.04 34.2379 14.5958 36.2618C17.1515 38.2856 20.292 39.431 23.5507 39.5277C26.8093 39.6244 30.0122 38.6673 32.6835 36.7986C35.3548 34.9299 37.352 32.2492 38.3784 29.1549C39.4047 26.0606 39.4054 22.7178 38.3804 19.623C37.5315 17.0598 36.2471 14.7665 34.8816 13.4215C34.4433 12.9899 34.3015 12.2983 34.6427 11.7864L35.6347 10.2984Z"/>
</mask>
<path d="M35.6347 10.2984C35.976 9.78657 36.6609 9.66104 37.0839 10.1077C38.8045 11.9242 41.1819 15.8942 41.9729 18.2826C43.2542 22.151 43.2558 26.4793 41.9729 30.3472C40.69 34.2151 38.1935 37.5659 34.8544 39.9018C31.5152 42.2377 27.5116 43.4341 23.4383 43.3132C19.365 43.1923 15.4394 41.7606 12.2447 39.2308C9.04994 36.7009 6.75658 33.2079 5.70531 29.2708C4.65403 25.3336 4.90094 21.1624 6.40934 17.3767C7.65754 14.2441 10.114 11.5772 11.871 10.1191C12.3814 9.69559 13.1284 9.88597 13.4339 10.4747L14.1279 11.8117C14.393 12.3225 14.2209 12.9464 13.772 13.3064C12.3259 14.4658 10.9425 16.2311 9.92749 18.7786C8.72076 21.8071 8.52324 25.1441 9.36426 28.2938C10.2053 31.4435 12.04 34.2379 14.5958 36.2618C17.1515 38.2856 20.292 39.431 23.5507 39.5277C26.8093 39.6244 30.0122 38.6673 32.6835 36.7986C35.3548 34.9299 37.352 32.2492 38.3784 29.1549C39.4047 26.0606 39.4054 22.7178 38.3804 19.623C37.5315 17.0598 36.2471 14.7665 34.8816 13.4215C34.4433 12.9899 34.3015 12.2983 34.6427 11.7864L35.6347 10.2984Z" fill="#1E1E1E"/>
<path d="M41.9729 18.2826L38.2935 19.5012L41.9729 18.2826ZM38.3804 19.623L42.0599 18.4044L38.3804 19.623ZM34.8816 13.4215L37.6015 10.6602L34.8816 13.4215ZM34.6427 11.7864L37.8677 13.9365L34.6427 11.7864ZM13.772 13.3064L11.3474 10.2824L13.772 13.3064ZM13.4339 10.4747L16.8741 8.68912L13.4339 10.4747ZM37.0839 10.1077L34.2699 12.7731L37.0839 10.1077ZM35.6347 10.2984L32.4097 8.14841L35.6347 10.2984ZM37.0839 10.1077L34.2699 12.7731C34.8526 13.3883 35.7096 14.5646 36.5509 15.9707C37.392 17.3766 38.025 18.6905 38.2935 19.5012L41.9729 18.2826L45.6524 17.0639C45.1298 15.4862 44.1786 13.6209 43.2031 11.9906C42.2278 10.3605 41.0358 8.64348 39.8979 7.4422L37.0839 10.1077ZM41.9729 18.2826L38.2935 19.5012C39.313 22.5795 39.3138 26.0524 38.294 29.1269L41.9729 30.3472L45.6518 31.5674C47.1979 26.9062 47.1953 21.7225 45.6524 17.0639L41.9729 18.2826ZM41.9729 30.3472L38.294 29.1269C37.2737 32.2031 35.2882 34.868 32.6326 36.7258L34.8544 39.9018L37.0762 43.0778C41.0988 40.2637 44.1063 36.227 45.6518 31.5674L41.9729 30.3472ZM34.8544 39.9018L32.6326 36.7258C29.9769 38.5836 26.7928 39.5351 23.5533 39.4389L23.4383 43.3132L23.3233 47.1875C28.2304 47.3331 33.0535 45.8919 37.0762 43.0778L34.8544 39.9018ZM23.4383 43.3132L23.5533 39.4389C20.3138 39.3428 17.1917 38.2041 14.6509 36.1921L12.2447 39.2308L9.83843 42.2694C13.6871 45.3171 18.4163 47.0419 23.3233 47.1875L23.4383 43.3132ZM12.2447 39.2308L14.6509 36.1921C12.1101 34.1801 10.2862 31.4021 9.45011 28.2709L5.70531 29.2708L1.9605 30.2707C3.22697 35.0138 5.98976 39.2217 9.83843 42.2694L12.2447 39.2308ZM5.70531 29.2708L9.45011 28.2709C8.61402 25.1396 8.81039 21.8222 10.01 18.8114L6.40934 17.3767L2.80865 15.942C0.991485 20.5026 0.69404 25.5276 1.9605 30.2707L5.70531 29.2708ZM6.40934 17.3767L10.01 18.8114C10.9378 16.483 12.888 14.3119 14.3462 13.1019L11.871 10.1191L9.39587 7.13635C7.33991 8.84243 4.37729 12.0052 2.80865 15.942L6.40934 17.3767ZM13.4339 10.4747L9.99366 12.2602L10.6876 13.5973L14.1279 11.8117L17.5681 10.0262L16.8741 8.68912L13.4339 10.4747ZM13.772 13.3064L11.3474 10.2824C9.33149 11.8986 7.56663 14.2322 6.32679 17.3438L9.92748 18.7786L13.5282 20.2133C14.3185 18.2299 15.3203 17.033 16.1966 16.3304L13.772 13.3064ZM9.92748 18.7786L6.32679 17.3438C4.81131 21.1472 4.56325 25.3381 5.61946 29.2937L9.36426 28.2938L13.1091 27.2939C12.4832 24.9501 12.6302 22.4669 13.5282 20.2133L9.92748 18.7786ZM9.36426 28.2938L5.61946 29.2937C6.67567 33.2493 8.97979 36.7587 12.1895 39.3004L14.5958 36.2618L17.002 33.2231C15.1001 31.7171 13.7349 29.6377 13.1091 27.2939L9.36426 28.2938ZM14.5958 36.2618L12.1895 39.3004C15.3992 41.8421 19.3433 43.2806 23.4357 43.402L23.5507 39.5277L23.6657 35.6534C21.2408 35.5815 18.9038 34.7292 17.002 33.2231L14.5958 36.2618ZM23.5507 39.5277L23.4357 43.402C27.5281 43.5235 31.5505 42.3215 34.9053 39.9746L32.6835 36.7986L30.4617 33.6226C28.4739 35.0132 26.0905 35.7254 23.6657 35.6534L23.5507 39.5277ZM32.6835 36.7986L34.9053 39.9746C38.2601 37.6277 40.7683 34.2612 42.0573 30.3752L38.3784 29.1549L34.6994 27.9347C33.9357 30.2372 32.4495 32.232 30.4617 33.6226L32.6835 36.7986ZM38.3784 29.1549L42.0573 30.3752C43.3462 26.4891 43.3471 22.291 42.0599 18.4044L38.3804 19.623L34.701 20.8417C35.4637 23.1446 35.4632 25.6321 34.6994 27.9347L38.3784 29.1549ZM38.3804 19.623L42.0599 18.4044C41.0972 15.4977 39.5546 12.5839 37.6015 10.6602L34.8816 13.4215L32.1616 16.1829C32.9396 16.9492 33.9658 18.6218 34.701 20.8417L38.3804 19.623ZM34.6427 11.7864L37.8677 13.9365L38.8598 12.4484L35.6347 10.2984L32.4097 8.14841L31.4177 9.63642L34.6427 11.7864ZM34.8816 13.4215L37.6015 10.6602C38.1921 11.2419 38.7714 12.581 37.8677 13.9365L34.6427 11.7864L31.4177 9.63642C29.8316 12.0155 30.6945 14.7378 32.1616 16.1829L34.8816 13.4215ZM14.1279 11.8117L10.6876 13.5973C9.99268 12.2583 10.5469 10.9242 11.3474 10.2824L13.772 13.3064L16.1966 16.3304C17.895 14.9687 18.7932 12.3867 17.5681 10.0262L14.1279 11.8117ZM11.871 10.1191L14.3462 13.1019C12.7516 14.4251 10.7025 13.6259 9.99366 12.2602L13.4339 10.4747L16.8741 8.68912C15.5542 6.14603 12.0112 4.96608 9.39587 7.13635L11.871 10.1191ZM37.0839 10.1077L39.8979 7.4422C37.4188 4.82493 33.8396 6.00354 32.4097 8.14841L35.6347 10.2984L38.8598 12.4484C38.4502 13.0627 37.7622 13.5495 36.8969 13.6777C35.9756 13.8143 34.9703 13.5125 34.2699 12.7731L37.0839 10.1077Z" fill="#1E1E1E" mask="url(#path-2-inside-1_2_2)"/>
<path d="M16.1082 19.1909C15.4478 20.1096 15.2543 21.0368 15.0369 21.8872C14.579 23.6787 14.6705 25.5671 15.2987 27.3071C15.9269 29.0471 17.0629 30.5598 18.5594 31.6479C20.0557 32.7358 21.8439 33.3502 23.6922 33.4106C25.5409 33.4709 27.3649 32.9738 28.9266 31.9838C30.4882 30.9939 31.7151 29.5565 32.4481 27.8588C33.1809 26.1615 33.3864 24.2827 33.0379 22.4663C32.8371 21.42 32.5858 20.4024 31.9363 19.3872L32.3973 18.6508C33.0961 19.8376 33.6167 21.1558 33.8406 22.3227C34.2204 24.3016 33.997 26.3469 33.2 28.1928C32.403 30.0386 31.0694 31.6011 29.3719 32.6772C27.6743 33.7533 25.6902 34.2936 23.6776 34.228C21.665 34.1623 19.7163 33.4932 18.0848 32.3071C16.4532 31.1207 15.2138 29.4719 14.5291 27.5756C13.8445 25.6795 13.7457 23.6232 14.244 21.6743C14.5125 20.6239 15.0632 19.579 15.8104 18.5971L16.1082 19.1909Z" fill="#1E1E1E" stroke="#1E1E1E" stroke-width="4"/>
<path d="M24.52 7.29405C26.2462 7.33061 27.945 7.66748 29.5356 8.28038L25.6538 14.9737C25.2122 14.8763 24.696 14.7862 24.2387 14.7862C23.8179 14.7862 23.3556 14.8612 22.9507 14.9474L19.4438 8.0753C21.0654 7.52466 22.7849 7.25734 24.52 7.29405Z" fill="#1E1E1E" stroke="#1E1E1E" stroke-width="4"/>
<circle cx="24" cy="24.0061" r="3.6575" fill="#1E1E1E" stroke="#1E1E1E" stroke-width="1.045"/>
</g>
<defs>
<clipPath id="clip0_2_2">
<rect width="48" height="48" fill="white"/>
</clipPath>
</defs>
</svg>
