<svg width="20" height="20" viewBox="0 0 20 20" fill="none" xmlns="http://www.w3.org/2000/svg">
<path d="M8.445 4.86306L5.3033 1.72136L11.5399 0.125022C12.9088 -0.225367 14.361 0.172495 15.3602 1.17167L16.9706 2.78202L18.5809 4.39237C19.5801 5.39154 19.9779 6.84375 19.6276 8.21267L18.0312 14.4493L14.8895 11.3076L16.9706 2.78202L8.445 4.86306L11.6673 8.08532L14.8832 11.3013L12.7279 19.7526L11.1773 18.2019C10.1894 17.214 9.78849 15.7822 10.1198 14.425L11.6673 8.08532L5.32761 9.63279C3.97034 9.96409 2.53856 9.56322 1.55065 8.57531L0 7.02466L8.445 4.86306Z" fill="#888888"/>
</svg>
